<mxfile host="app.diagrams.net" modified="2023-10-04T18:52:13.230Z" agent="Mozilla/5.0 (X11; Linux x86_64; rv:109.0) Gecko/20100101 Firefox/114.0" version="22.0.2" etag="gqA8KQyPl_Xd0O26Ipcq" type="github">
  <diagram name="PÃ¡gina-1" id="KWbgDa2jZQsCIbJ6qf5g">
    <mxGraphModel>
      <root>
        <mxCell id="0" />
        <mxCell id="1" parent="0" />
      </root>
    </mxGraphModel>
  </diagram>
</mxfile>
